<svg width="160" height="20" viewBox="0 0 160 20" fill="none" xmlns="http://www.w3.org/2000/svg">
<path fill-rule="evenodd" clip-rule="evenodd" d="M3.85669 4.5791C3.95404 5.00712 4.08884 5.45116 4.26011 5.90247C3.82269 5.94649 3.40801 6.01496 3.02241 6.10718C2.31231 6.277 1.65348 6.53862 1.13029 6.91781C0.602381 7.30042 0.158522 7.84664 0.0337841 8.56998C-0.0909536 9.29333 0.143432 9.96183 0.511524 10.506C0.876328 11.0453 1.40791 11.5215 2.01839 11.9294C2.13242 12.0056 2.25064 12.0804 2.37279 12.1536C3.56518 12.8739 5.13835 13.4456 6.87199 13.7581C8.82714 14.1106 10.6872 13.9219 12.1007 13.5043C12.1781 13.4815 12.2544 13.4578 12.3298 13.4334C12.1222 14.3291 11.9809 15.1833 11.9145 15.9403C11.8496 16.6795 11.8508 17.3808 11.9591 17.9559C12.0409 18.3909 12.2454 19.0747 12.8332 19.4196C12.9116 19.468 12.9971 19.5103 13.0903 19.545C13.7989 19.8087 14.4493 19.4704 14.8533 19.1667C15.2925 18.8365 15.7157 18.349 16.1077 17.7921C16.8997 16.6667 17.6992 15.063 18.3458 13.2464C18.9924 11.4297 19.3882 9.67574 19.4889 8.29314C19.5387 7.60892 19.521 6.95728 19.3921 6.41566C19.288 5.97829 19.0552 5.39571 18.5204 5.08153C18.4386 5.03108 18.3494 4.98699 18.2523 4.95085C17.6178 4.71471 17.0109 4.93079 16.5731 5.20678C16.1261 5.48858 15.7046 5.92005 15.3184 6.42375C15.0475 6.77698 14.7771 7.18815 14.5122 7.65079C14.0792 6.52216 13.394 5.2518 12.3817 4.01825C11.2917 2.68992 10.0724 1.61367 8.90611 0.914569C8.73829 0.813205 8.57153 0.71962 8.40637 0.634184C7.75565 0.297555 7.08649 0.064952 6.44733 0.0115577C5.80241 -0.0423178 5.11902 0.0843797 4.56874 0.55651C4.02644 1.02633 3.79563 1.72823 3.70828 2.38888C3.61942 3.06089 3.68262 3.81386 3.85669 4.5791ZM7.56122 2.41336C7.68044 2.47504 7.80223 2.54305 7.92613 2.61724C8.85598 3.1794 9.90217 4.08697 10.8745 5.27187C11.4894 6.02108 11.9592 6.78096 12.3091 7.49304C11.167 6.86872 9.73107 6.37453 8.16407 6.092C7.5483 5.98098 6.94061 5.90776 6.35196 5.87113C6.06617 5.26397 5.86163 4.67236 5.73862 4.13154C5.60092 3.52619 5.57413 3.02329 5.62302 2.65357C5.67297 2.27575 5.78653 2.13025 5.83781 2.08625C5.88668 2.04432 6.01221 1.97148 6.3171 1.99695C6.62774 2.0229 7.04927 2.14852 7.56122 2.41336ZM7.1804 11.7962C5.63448 11.5175 4.30174 11.019 3.35287 10.451C3.26608 10.3985 3.18255 10.3454 3.10244 10.2919C2.62216 9.97098 2.305 9.66053 2.1277 9.39842C1.95368 9.14118 1.95261 8.99359 1.96369 8.92935C1.97476 8.86511 2.02514 8.72681 2.27471 8.54593C2.52898 8.36164 2.93087 8.18082 3.48953 8.04722C3.98373 7.92903 4.56373 7.85659 5.2049 7.8394C5.52266 8.36882 5.8881 8.89124 6.29968 9.39278C7.275 10.5813 8.42892 11.414 9.57368 11.9299C8.82582 11.9788 8.01385 11.9465 7.1804 11.7962ZM7.85565 8.05394C9.40163 8.33268 10.7344 8.83115 11.6833 9.39921C11.77 9.45168 11.8535 9.50473 11.9336 9.55823C12.4139 9.87915 12.7311 10.1896 12.9084 10.4517C12.9319 10.4866 12.9524 10.5194 12.97 10.5504C12.8875 10.5689 12.7941 10.5841 12.6888 10.5944C12.2914 10.633 11.7893 10.5923 11.227 10.4384C10.1041 10.1312 8.8239 9.39517 7.7798 8.12286C7.75368 8.09102 7.72779 8.0591 7.70213 8.02711C7.75316 8.03575 7.80433 8.04469 7.85565 8.05394ZM16.866 7.65904C17.1211 7.32628 17.3407 7.10787 17.5103 6.97777C17.5554 7.23911 17.5719 7.62272 17.535 8.13006C17.4508 9.28572 17.1069 10.8581 16.5031 12.5544C15.8993 14.2506 15.1743 15.6812 14.5123 16.6218C14.2624 16.9769 14.0396 17.2359 13.8557 17.41C13.8206 17.0978 13.8189 16.669 13.866 16.1332C13.9744 14.8979 14.3236 13.2885 14.8796 11.6723C14.9087 11.609 14.9346 11.5424 14.9561 11.4725C15.0048 11.3662 15.0387 11.2596 15.0627 11.1604C15.6397 9.6077 16.2856 8.41592 16.866 7.65904Z" fill="white"/>
<path d="M21.6276 15.8868V2.17311H26.9077C27.9598 2.17311 28.8691 2.33452 29.6354 2.65735C30.4148 2.96726 31.0123 3.47087 31.4279 4.16818C31.8566 4.85257 32.0709 5.75648 32.0709 6.87992C32.0709 7.95171 31.8371 8.84917 31.3695 9.5723C30.9019 10.2825 30.2589 10.8184 29.4406 11.18C28.6353 11.5286 27.7131 11.703 26.6739 11.703H24.2385V15.8868H21.6276ZM24.2385 9.3786H26.635C27.4922 9.3786 28.1807 9.17199 28.7002 8.75877C29.2198 8.34556 29.4796 7.71282 29.4796 6.86055C29.4796 6.09868 29.2588 5.53051 28.8171 5.15603C28.3885 4.76863 27.7131 4.57494 26.7908 4.57494H24.2385V9.3786Z" fill="white"/>
<path d="M35.8707 16.003C35.2472 16.003 34.6627 15.8997 34.1172 15.6931C33.5846 15.4736 33.156 15.1443 32.8313 14.7052C32.5065 14.2533 32.3442 13.6851 32.3442 13.0007C32.3442 12.4971 32.4351 12.071 32.6169 11.7223C32.8118 11.3608 33.0651 11.0638 33.3768 10.8313C33.7015 10.586 34.0717 10.3923 34.4874 10.2502C34.903 10.1082 35.3317 9.99843 35.7733 9.92095C36.2279 9.83056 36.7345 9.75954 37.293 9.70789C37.8516 9.65623 38.4491 9.59812 39.0855 9.53356C39.0855 9.14617 39.0076 8.81688 38.8517 8.54571C38.6959 8.26162 38.475 8.04856 38.1893 7.90651C37.9035 7.75155 37.5528 7.67408 37.1372 7.67408C36.6955 7.67408 36.3124 7.75155 35.9876 7.90651C35.6629 8.04856 35.4161 8.2939 35.2472 8.64256H32.6559C32.7858 7.86777 33.0716 7.2544 33.5132 6.80244C33.9678 6.35049 34.5199 6.02766 35.1693 5.83396C35.8188 5.62735 36.4877 5.52405 37.1761 5.52405C38.2283 5.52405 39.0725 5.71129 39.709 6.08577C40.3455 6.46025 40.8066 7.00905 41.0924 7.73218C41.3781 8.4424 41.521 9.31404 41.521 10.3471V15.8868H39.6063L39.1245 14.6471C38.8258 15.0087 38.4815 15.2928 38.0919 15.4994C37.7152 15.6931 37.332 15.8222 36.9423 15.8868C36.5656 15.9643 36.2084 16.003 35.8707 16.003ZM36.3968 13.9498C36.8904 13.9498 37.332 13.8594 37.7217 13.6787C38.1243 13.4979 38.4426 13.2396 38.6764 12.9039C38.9232 12.5552 39.0596 12.142 39.0855 11.6642V11.2768C38.7998 11.3027 38.514 11.3349 38.2283 11.3737C37.9425 11.3995 37.6502 11.4318 37.3515 11.4705C37.0657 11.4963 36.78 11.5351 36.4942 11.5867C36.0136 11.6513 35.6239 11.7869 35.3252 11.9935C35.0264 12.2001 34.8771 12.4842 34.8771 12.8458C34.8771 13.1299 34.955 13.3558 35.1109 13.5237C35.2797 13.6787 35.481 13.7884 35.7149 13.853C35.9487 13.9175 36.176 13.9498 36.3968 13.9498Z" fill="white"/>
<path d="M42.7564 19.6639V5.67901H44.7879L45.2698 6.99614C45.6854 6.47962 46.166 6.10514 46.7116 5.8727C47.2571 5.62735 47.8611 5.50468 48.5236 5.50468C49.5367 5.50468 50.3745 5.73712 51.037 6.20199C51.6994 6.66686 52.193 7.2996 52.5177 8.10021C52.8554 8.88791 53.0243 9.77245 53.0243 10.7538C53.0243 11.7611 52.8489 12.665 52.4982 13.4656C52.1605 14.2533 51.6475 14.8796 50.959 15.3444C50.2836 15.7964 49.4328 16.0224 48.4067 16.0224C47.9391 16.0224 47.5104 15.9707 47.1207 15.8674C46.7311 15.7641 46.3804 15.6221 46.0686 15.4413C45.7699 15.2476 45.5166 15.0345 45.3088 14.8021V19.6639H42.7564ZM47.978 13.7368C48.6145 13.7368 49.1146 13.5947 49.4783 13.3106C49.842 13.0265 50.1018 12.665 50.2576 12.2259C50.4135 11.774 50.4914 11.3027 50.4914 10.812C50.4914 10.2954 50.407 9.81119 50.2381 9.35923C50.0823 8.89436 49.816 8.51988 49.4393 8.2358C49.0626 7.95171 48.5625 7.80966 47.9391 7.80966C47.3675 7.80966 46.8804 7.95171 46.4778 8.2358C46.0881 8.50697 45.7894 8.86854 45.5815 9.32049C45.3867 9.77245 45.2893 10.2631 45.2893 10.7926C45.2893 11.322 45.3867 11.8127 45.5815 12.2647C45.7764 12.7037 46.0686 13.0588 46.4583 13.33C46.861 13.6012 47.3675 13.7368 47.978 13.7368Z" fill="white"/>
<path d="M54.1243 15.8868V5.67901H56.6767V15.8868H54.1243ZM55.4103 4.57494C54.9297 4.57494 54.54 4.43289 54.2412 4.14881C53.9555 3.85181 53.8126 3.47733 53.8126 3.02537C53.8126 2.5605 53.962 2.17956 54.2607 1.88256C54.5725 1.58556 54.9621 1.43706 55.4297 1.43706C55.8584 1.43706 56.2286 1.58556 56.5403 1.88256C56.865 2.16665 57.0274 2.54113 57.0274 3.006C57.0274 3.47087 56.8715 3.85181 56.5598 4.14881C56.261 4.43289 55.8779 4.57494 55.4103 4.57494Z" fill="white"/>
<path d="M61.3351 16.003C60.5818 16.003 59.9518 15.8739 59.4452 15.6156C58.9516 15.3444 58.5814 14.9441 58.3346 14.4147C58.1008 13.8853 57.9839 13.2267 57.9839 12.439V2.17311H60.5363V11.9354C60.5363 12.284 60.5688 12.5875 60.6337 12.8458C60.7117 13.104 60.8415 13.3042 61.0234 13.4462C61.2182 13.5883 61.491 13.6593 61.8417 13.6593C62.1015 13.6593 62.3483 13.6205 62.5821 13.5431C62.8159 13.4527 63.0302 13.33 63.225 13.175L63.8219 15.1314C63.6136 15.5275 63.2121 15.6996 62.7574 15.8287C62.3158 15.9449 61.8417 16.003 61.3351 16.003Z" fill="white"/>
<path d="M67.439 16.003C66.6856 16.003 66.0557 15.8739 65.5491 15.6156C65.0555 15.3444 64.6853 14.9441 64.4385 14.4147C64.2047 13.8853 64.0878 13.2267 64.0878 12.439V2.17311H66.6402V11.9354C66.6402 12.284 66.6727 12.5875 66.7376 12.8458C66.8155 13.104 66.9454 13.3042 67.1273 13.4462C67.3221 13.5883 67.5949 13.6593 67.9456 13.6593C68.2054 13.6593 68.4522 13.6205 68.686 13.5431C68.9198 13.4527 69.1341 13.33 69.3289 13.175L70.1667 15.1314C69.7511 15.4671 69.3159 15.6996 68.8613 15.8287C68.4197 15.9449 67.9456 16.003 67.439 16.003Z" fill="white"/>
<path d="M74.9067 16.0224C73.8546 16.0224 72.9454 15.8093 72.179 15.3832C71.4127 14.9571 70.8152 14.3566 70.3865 13.5818C69.9709 12.7941 69.763 11.8644 69.763 10.7926C69.763 9.70789 69.9774 8.77169 70.406 7.98399C70.8347 7.19629 71.4322 6.58938 72.1985 6.16325C72.9649 5.7242 73.8611 5.50468 74.8873 5.50468C75.9264 5.50468 76.8226 5.7242 77.576 6.16325C78.3424 6.60229 78.9334 7.22212 79.349 8.02273C79.7647 8.81043 79.9725 9.74663 79.9725 10.8313C79.9725 11.8902 79.7647 12.8135 79.349 13.6012C78.9464 14.376 78.3684 14.9764 77.615 15.4026C76.8616 15.8158 75.9589 16.0224 74.9067 16.0224ZM74.8678 13.698C75.4913 13.698 75.9913 13.5624 76.368 13.2913C76.7577 13.0201 77.037 12.665 77.2058 12.2259C77.3747 11.7869 77.4591 11.3156 77.4591 10.812C77.4591 10.3083 77.3747 9.83056 77.2058 9.3786C77.037 8.92665 76.7642 8.55862 76.3875 8.27453C76.0108 7.99045 75.5042 7.8484 74.8678 7.8484C74.2573 7.8484 73.7572 7.99045 73.3675 8.27453C72.9909 8.55862 72.7116 8.92665 72.5297 9.3786C72.3609 9.81765 72.2764 10.2954 72.2764 10.812C72.2764 11.3156 72.3609 11.7933 72.5297 12.2453C72.7116 12.6844 72.9909 13.0395 73.3675 13.3106C73.7572 13.5689 74.2573 13.698 74.8678 13.698Z" fill="white"/>
<path d="M80.8231 15.8868V5.67901H82.8741L83.356 6.91866C83.6288 6.55709 83.947 6.27946 84.3107 6.08577C84.6874 5.87916 85.0706 5.73066 85.4602 5.64027C85.8499 5.54988 86.2136 5.50468 86.5513 5.50468C87.5255 5.50468 88.2919 5.71775 88.8504 6.14388C89.4089 6.57001 89.8051 7.14464 90.0389 7.86777C90.2857 8.57799 90.4091 9.37215 90.4091 10.2502V15.8868H87.8567V10.6183C87.8567 10.2696 87.8307 9.93387 87.7788 9.61104C87.7268 9.2753 87.6294 8.97184 87.4865 8.70067C87.3436 8.42949 87.1423 8.21643 86.8825 8.06147C86.6228 7.8936 86.2785 7.80966 85.8499 7.80966C85.3044 7.80966 84.8432 7.95171 84.4666 8.2358C84.1029 8.50697 83.8301 8.87499 83.6482 9.33986C83.4664 9.80473 83.3755 10.3277 83.3755 10.9088V15.8868H80.8231Z" fill="white"/>
<path d="M97.4571 16.4874C96.5808 16.4874 95.7291 16.321 94.9021 15.9882C94.0751 15.6555 93.3777 15.1994 92.8099 14.6202L93.7542 13.4924C94.2232 14.0101 94.7848 14.3983 95.439 14.6571C96.1055 14.916 96.7906 15.0454 97.4942 15.0454C98.3829 15.0454 99.0617 14.8728 99.5308 14.5277C100.012 14.1703 100.253 13.6403 100.253 12.9378C100.253 12.4325 100.129 12.0319 99.8826 11.7361C99.6357 11.428 99.3086 11.1754 98.9013 10.9782C98.5063 10.7686 98.0558 10.5961 97.5497 10.4605C97.056 10.3126 96.5561 10.1585 96.05 9.99832C95.655 9.86275 95.2786 9.70868 94.9206 9.53613C94.575 9.36359 94.2726 9.1479 94.0134 8.88908C93.7542 8.63025 93.5443 8.32213 93.3839 7.96471C93.2357 7.59496 93.1617 7.15742 93.1617 6.6521C93.1617 6.13445 93.2543 5.66611 93.4394 5.24706C93.6369 4.81569 93.9084 4.44594 94.2541 4.13781C94.612 3.82969 95.0379 3.59552 95.5316 3.43529C96.0377 3.26274 96.6054 3.17647 97.2349 3.17647C98.0126 3.17647 98.7655 3.31821 99.4938 3.60168C100.222 3.88515 100.827 4.27339 101.308 4.76639L100.401 5.9126C100.203 5.70308 99.9751 5.51821 99.7159 5.35798C99.4691 5.19776 99.2037 5.06835 98.9198 4.96975C98.6359 4.85882 98.3458 4.77871 98.0496 4.72941C97.7534 4.66779 97.4633 4.63697 97.1794 4.63697C96.3771 4.63697 95.7599 4.80952 95.3279 5.15462C94.8959 5.49972 94.6799 5.96807 94.6799 6.55966C94.6799 6.92941 94.7601 7.2437 94.9206 7.50252C95.0811 7.74902 95.3032 7.96471 95.5871 8.14958C95.871 8.33445 96.2043 8.49468 96.5869 8.63025C96.9696 8.7535 97.3769 8.87675 97.8089 9C98.2903 9.13557 98.7655 9.2958 99.2346 9.48067C99.7159 9.65322 100.148 9.88123 100.531 10.1647C100.913 10.4482 101.222 10.8056 101.456 11.237C101.691 11.656 101.808 12.1798 101.808 12.8084C101.808 13.3754 101.703 13.8868 101.493 14.3429C101.296 14.7989 101.006 15.1871 100.623 15.5076C100.253 15.8157 99.7962 16.056 99.2531 16.2286C98.7223 16.4011 98.1237 16.4874 97.4571 16.4874Z" fill="white"/>
<path d="M107.185 16.4504C106.099 16.4504 105.284 16.1423 104.741 15.5261C104.21 14.9098 103.945 14.0162 103.945 12.8454V6.68908H105.315V12.605C105.315 13.3938 105.475 14.0039 105.796 14.4353C106.13 14.8667 106.667 15.0824 107.407 15.0824H107.555C107.987 15.0824 108.382 15.0146 108.74 14.879C109.11 14.7434 109.425 14.5462 109.684 14.2874C109.944 14.0286 110.147 13.7143 110.295 13.3445C110.444 12.9748 110.518 12.5619 110.518 12.1059V6.68908H111.888V16.3025H110.814C110.752 16.13 110.697 15.9266 110.647 15.6924C110.598 15.4459 110.561 15.2179 110.536 15.0084C110.141 15.4644 109.672 15.8218 109.129 16.0807C108.586 16.3272 107.981 16.4504 107.315 16.4504H107.185Z" fill="white"/>
<path d="M115.033 6.68908H116.107C116.168 6.8493 116.224 7.05266 116.273 7.29916C116.323 7.53333 116.36 7.75518 116.384 7.96471C116.767 7.53333 117.224 7.1944 117.754 6.9479C118.298 6.7014 118.896 6.57815 119.55 6.57815H119.717C120.347 6.57815 120.927 6.69524 121.457 6.92941C121.988 7.15126 122.445 7.47171 122.828 7.89076C123.21 8.3098 123.506 8.8028 123.716 9.36975C123.926 9.93669 124.031 10.5653 124.031 11.2555V11.7361C124.031 12.414 123.926 13.0426 123.716 13.6218C123.506 14.1888 123.21 14.6818 122.828 15.1008C122.445 15.5199 121.988 15.8465 121.457 16.0807C120.927 16.3025 120.347 16.4134 119.717 16.4134H119.55C118.896 16.4134 118.304 16.2964 117.773 16.0622C117.242 15.828 116.786 15.4952 116.403 15.0639V20H115.033V6.68908ZM119.569 15.0454C120.013 15.0454 120.421 14.9653 120.791 14.805C121.161 14.6448 121.476 14.423 121.735 14.1395C122.007 13.8437 122.217 13.4924 122.365 13.0857C122.513 12.679 122.587 12.2291 122.587 11.7361V11.2555C122.587 10.7625 122.513 10.3126 122.365 9.90588C122.217 9.49916 122.007 9.15406 121.735 8.87059C121.476 8.57479 121.161 8.34678 120.791 8.18655C120.421 8.02633 120.013 7.94622 119.569 7.94622H119.421C118.964 7.94622 118.551 8.02633 118.18 8.18655C117.81 8.34678 117.489 8.57479 117.218 8.87059C116.958 9.16639 116.755 9.51765 116.607 9.92437C116.471 10.3311 116.403 10.7748 116.403 11.2555V11.7361C116.403 12.2291 116.477 12.679 116.625 13.0857C116.773 13.4924 116.977 13.8437 117.236 14.1395C117.508 14.423 117.829 14.6448 118.199 14.805C118.569 14.9653 118.976 15.0454 119.421 15.0454H119.569Z" fill="white"/>
<path d="M126.46 6.68908H127.534C127.595 6.8493 127.651 7.05266 127.7 7.29916C127.75 7.53333 127.787 7.75518 127.812 7.96471C128.194 7.53333 128.651 7.1944 129.182 6.9479C129.725 6.7014 130.323 6.57815 130.978 6.57815H131.144C131.774 6.57815 132.354 6.69524 132.885 6.92941C133.415 7.15126 133.872 7.47171 134.255 7.89076C134.637 8.3098 134.934 8.8028 135.143 9.36975C135.353 9.93669 135.458 10.5653 135.458 11.2555V11.7361C135.458 12.414 135.353 13.0426 135.143 13.6218C134.934 14.1888 134.637 14.6818 134.255 15.1008C133.872 15.5199 133.415 15.8465 132.885 16.0807C132.354 16.3025 131.774 16.4134 131.144 16.4134H130.978C130.323 16.4134 129.731 16.2964 129.2 16.0622C128.669 15.828 128.213 15.4952 127.83 15.0639V20H126.46V6.68908ZM130.996 15.0454C131.44 15.0454 131.848 14.9653 132.218 14.805C132.588 14.6448 132.903 14.423 133.162 14.1395C133.434 13.8437 133.644 13.4924 133.792 13.0857C133.94 12.679 134.014 12.2291 134.014 11.7361V11.2555C134.014 10.7625 133.94 10.3126 133.792 9.90588C133.644 9.49916 133.434 9.15406 133.162 8.87059C132.903 8.57479 132.588 8.34678 132.218 8.18655C131.848 8.02633 131.44 7.94622 130.996 7.94622H130.848C130.391 7.94622 129.978 8.02633 129.607 8.18655C129.237 8.34678 128.916 8.57479 128.645 8.87059C128.385 9.16639 128.182 9.51765 128.034 9.92437C127.898 10.3311 127.83 10.7748 127.83 11.2555V11.7361C127.83 12.2291 127.904 12.679 128.052 13.0857C128.2 13.4924 128.404 13.8437 128.663 14.1395C128.935 14.423 129.256 14.6448 129.626 14.805C129.996 14.9653 130.404 15.0454 130.848 15.0454H130.996Z" fill="white"/>
<path d="M141.609 16.4134C140.954 16.4134 140.356 16.3025 139.813 16.0807C139.269 15.8465 138.8 15.5199 138.405 15.1008C138.01 14.6818 137.702 14.1888 137.48 13.6218C137.27 13.0426 137.165 12.414 137.165 11.7361V11.2555C137.165 10.5653 137.27 9.93669 137.48 9.36975C137.702 8.8028 138.01 8.3098 138.405 7.89076C138.8 7.47171 139.269 7.15126 139.813 6.92941C140.356 6.69524 140.954 6.57815 141.609 6.57815H141.794C142.448 6.57815 143.047 6.69524 143.59 6.92941C144.133 7.15126 144.602 7.47171 144.997 7.89076C145.392 8.3098 145.694 8.8028 145.904 9.36975C146.126 9.93669 146.237 10.5653 146.237 11.2555V11.7361C146.237 12.414 146.126 13.0426 145.904 13.6218C145.694 14.1888 145.392 14.6818 144.997 15.1008C144.602 15.5199 144.133 15.8465 143.59 16.0807C143.047 16.3025 142.448 16.4134 141.794 16.4134H141.609ZM141.775 15.0454C142.232 15.0454 142.645 14.9653 143.016 14.805C143.386 14.6448 143.701 14.4168 143.96 14.121C144.231 13.8252 144.435 13.474 144.571 13.0672C144.719 12.6605 144.793 12.2168 144.793 11.7361V11.2555C144.793 10.7625 144.719 10.3126 144.571 9.90588C144.423 9.49916 144.213 9.15406 143.941 8.87059C143.682 8.57479 143.367 8.34678 142.997 8.18655C142.627 8.02633 142.22 7.94622 141.775 7.94622H141.627C141.183 7.94622 140.775 8.02633 140.405 8.18655C140.035 8.34678 139.714 8.57479 139.442 8.87059C139.183 9.15406 138.979 9.49916 138.831 9.90588C138.683 10.3126 138.609 10.7625 138.609 11.2555V11.7361C138.609 12.2168 138.677 12.6605 138.813 13.0672C138.961 13.474 139.165 13.8252 139.424 14.121C139.695 14.4168 140.016 14.6448 140.387 14.805C140.757 14.9653 141.17 15.0454 141.627 15.0454H141.775Z" fill="white"/>
<path d="M148.663 6.68908H149.7C149.762 6.86162 149.817 7.05882 149.867 7.28067C149.928 7.4902 149.972 7.69972 149.996 7.90924C150.342 7.51485 150.755 7.21289 151.237 7.00336C151.718 6.79384 152.255 6.68908 152.848 6.68908H153.07V8.1126C153.008 8.10028 152.922 8.09412 152.811 8.09412C152.7 8.08179 152.595 8.07563 152.496 8.07563C151.644 8.07563 151.021 8.32829 150.626 8.83361C150.231 9.32661 150.033 10.0969 150.033 11.1445V16.3025H148.663V6.68908Z" fill="white"/>
<path d="M158.019 16.358C157.18 16.358 156.562 16.1546 156.167 15.7479C155.772 15.3289 155.575 14.688 155.575 13.8252V7.98319H154.279V6.98487C154.476 6.92325 154.686 6.86162 154.908 6.8C155.143 6.73837 155.365 6.7014 155.575 6.68908V4.47059L156.945 4.28571V6.68908H159.815V7.98319H156.945V13.5479C156.945 14.1272 157.056 14.5216 157.278 14.7311C157.513 14.9406 157.846 15.0454 158.278 15.0454C158.389 15.0454 158.519 15.0454 158.667 15.0454C158.827 15.0331 158.988 15.0207 159.148 15.0084C159.309 14.9838 159.463 14.9591 159.611 14.9345C159.772 14.9098 159.901 14.879 160 14.842V16.0622C159.889 16.1115 159.753 16.1546 159.593 16.1916C159.432 16.2286 159.259 16.2594 159.074 16.284C158.889 16.3087 158.704 16.3272 158.519 16.3395C158.334 16.3518 158.167 16.358 158.019 16.358Z" fill="white"/>
</svg>
